<svg xmlns="http://www.w3.org/2000/svg" width="888" height="200" viewBox="0 0 888 200">
  <path fill="none" d="M398.028 138.644h91.945v46.713h-91.945z"/>
  <path d="M465.369 161.644c0-6.396 5.198-11.548 11.547-11.548a11.525 11.525 0 0 1 11.547 11.548c0 6.349-5.152 11.547-11.547 11.547-6.349-.001-11.547-5.199-11.547-11.547zm4.555 0c0 3.818 3.128 6.992 6.992 6.992 3.865 0 6.993-3.174 6.993-6.992a6.99 6.99 0 0 0-6.993-6.993 6.988 6.988 0 0 0-6.992 6.993zm-30.36 0c0-6.396 5.198-11.548 11.547-11.548a11.525 11.525 0 0 1 11.547 11.548c0 6.349-5.152 11.547-11.547 11.547-6.348-.001-11.547-5.199-11.547-11.547zm4.555 0c0 3.818 3.128 6.992 6.993 6.992s6.993-3.174 6.993-6.992a6.99 6.99 0 0 0-6.993-6.993 6.988 6.988 0 0 0-6.993 6.993zm-11.73 9.293v-29.95c0-1.242 1.012-2.254 2.3-2.254a2.258 2.258 0 0 1 2.254 2.254v29.95c0 1.288-1.012 2.3-2.254 2.3a2.278 2.278 0 0 1-2.3-2.3zm-2.619 2.253c0 6.349-5.199 11.547-11.547 11.547-4.463 0-8.419-2.483-10.397-6.486-.552-1.15-.092-2.484 1.058-3.036a2.284 2.284 0 0 1 3.037 1.012c1.196 2.438 3.588 3.957 6.303 3.957 3.818 0 6.9-3.083 6.993-6.855v-2.53c-1.979 1.473-4.371 2.393-6.993 2.393-6.395 0-11.547-5.198-11.547-11.547a11.525 11.525 0 0 1 11.547-11.548c6.349 0 11.547 5.152 11.547 11.548-.001-.001-.001-.001-.001 11.545zm-4.555-11.546c0-3.865-3.174-6.993-6.993-6.993a6.99 6.99 0 0 0-6.993 6.993c0 3.818 3.128 6.992 6.993 6.992 3.819 0 6.993-3.174 6.993-6.992zm-25.761 9.293V143.15c0-1.242 1.012-2.255 2.3-2.255a2.259 2.259 0 0 1 2.254 2.255v27.787c0 1.288-1.012 2.3-2.254 2.3a2.278 2.278 0 0 1-2.3-2.3z" fill="#88C0D0"/>
  <circle fill="#2E3440" cx="444" cy="76.644" r="48"/>
  <circle fill="#81A1C1" cx="444" cy="76.643" r="38.157"/>
  <circle fill="#D08770" cx="446.176" cy="84.387" r="6.82"/>
  <path fill="#ECEFF4" d="M480.195 75.559a9.625 9.625 0 0 0-.01-.24c-.012-.303-.023-.604-.043-.904l-.01-.161a36.907 36.907 0 0 0-.211-2.198h.002c-1.004-7.959-4.596-15.111-9.902-20.594-.563.324-.943.93-.943 1.626v9.172h-4.1c-.85 0-1.539.689-1.539 1.539v11.063h-2.77c-.85 0-1.539.688-1.539 1.539v4.083h-2.154v-1.646a1.191 1.191 0 1 0-2.384 0v1.646h-.309c-.385 0-.738.143-1.008.377l-7.1 5.439s3.984 1.031 4.055 1.055c.051.018 1.656-.416 2.516-.65v15.324c0 .851.688 1.538 1.537 1.538h13.934l.004-.002a36.313 36.313 0 0 0 3.832-4.02l.031-.041c.18-.22.357-.442.531-.668l.076-.097c.158-.208.316-.416.473-.627l.096-.133a28.9 28.9 0 0 0 .434-.605l.111-.158c.135-.196.27-.396.4-.595.039-.059.078-.117.115-.176.129-.196.256-.394.381-.592l.117-.187c.121-.199.242-.398.361-.599l.113-.19c.117-.202.234-.407.348-.612l.104-.187c.117-.211.23-.423.342-.637.031-.057.063-.114.092-.173.117-.226.23-.454.344-.683.021-.045.045-.091.066-.138.127-.257.248-.516.367-.776.008-.018.018-.035.025-.053.387-.848.738-1.714 1.061-2.594l.053-.151c.084-.237.17-.476.248-.716.027-.084.057-.169.082-.252a30.373 30.373 0 0 0 .291-.931c.059-.192.113-.386.168-.58l.092-.339c.051-.186.098-.37.145-.557.031-.119.059-.24.088-.361.045-.182.088-.361.129-.543l.082-.379c.037-.177.074-.357.109-.535.025-.129.051-.26.074-.391.033-.177.064-.355.094-.534l.068-.397c.027-.177.053-.357.078-.535.021-.134.039-.268.057-.4.023-.182.047-.363.066-.543.016-.135.033-.269.045-.402.02-.184.037-.37.053-.557.012-.13.025-.262.035-.394.018-.193.029-.387.041-.581.008-.125.018-.25.023-.374.012-.217.018-.433.025-.649.004-.104.01-.209.012-.313a31.24 31.24 0 0 0-.004-2.051z"/>
  <path fill="#D8DEE9" d="M475.467 58.709v7.615h-4.451c-.951 0-1.723.771-1.723 1.723v10.146h-2.154c-.951 0-1.723.771-1.723 1.723v3.422h-5.125c-.953 0-1.723.772-1.723 1.723v.259c0 .953.77 1.723 1.723 1.723h5.814c.182 0 .354-.027.518-.078.162.051.338.078.518.078h3.512c.207.721.869 1.25 1.656 1.25h5.99a36.144 36.144 0 0 0 1.914-11.648 36.065 36.065 0 0 0-4.746-17.936z"/>
  <path fill="#88C0D0" d="M468.73 90.199h-15.18a4.148 4.148 0 0 0-4.148 4.148h-4.722a3.363 3.363 0 0 0-3.363 3.363c0 1.134.563 2.134 1.423 2.743a1.997 1.997 0 0 0 1.94 2.464h19.539a1.997 1.997 0 0 0 0-3.994h-.551a3.19 3.19 0 0 0 .139-.428h4.924a4.148 4.148 0 1 0-.001-8.296z"/>
  <path fill="#D8DEE9" d="M468.73 90.199h-15.18a4.148 4.148 0 0 0-4.148 4.148h-4.722a3.363 3.363 0 0 0-3.231 4.29 3.361 3.361 0 0 1 3.231-2.438h4.722a4.148 4.148 0 0 1 4.148-4.148h15.18a4.15 4.15 0 0 1 4.043 3.223 4.148 4.148 0 0 0-4.043-5.075zm-2.187 9.179l-1.992-.563-.881.108v1.853h.549c.768 0 1.434.434 1.768 1.071a1.996 1.996 0 0 0 .208-1.228h.49l-.142-1.241z"/>
  <path d="M463.514 101.972a.414.414 0 0 1-.412.413h-10.443a.412.412 0 0 1-.41-.413.41.41 0 0 1 .41-.411h10.443c.226 0 .412.184.412.411zm-4.473-1.78c0 .35-.283.633-.631.633h-8.267a.63.63 0 1 1 0-1.264h8.267a.632.632 0 0 1 .631.631zm-11.207 0c0 .35-.283.633-.632.633h-1.266a.631.631 0 1 1 0-1.264h1.266a.632.632 0 0 1 .632.631zm8.473-1.582a.314.314 0 0 1-.314.313h-10.844a.314.314 0 0 1 0-.627h10.844c.173 0 .314.141.314.314zm8.207-1.315a.41.41 0 0 1-.412.411h-.678a.41.41 0 1 1 0-.822h.678a.41.41 0 0 1 .412.411zm-3.362 0a.411.411 0 0 1-.412.411h-5.434a.41.41 0 1 1 0-.822h5.434c.227 0 .412.183.412.411zm2.891-1.337c0 .25-.205.455-.457.455h-1.383a.455.455 0 1 1 0-.911h1.383c.252 0 .457.204.457.456zm-4.559 0c0 .25-.205.455-.457.455h-7.973a.455.455 0 1 1 0-.911h7.973c.252 0 .457.204.457.456zm8.934-1.877a.68.68 0 0 1-.68.68h-13.172a.68.68 0 0 1 0-1.36h13.172a.68.68 0 0 1 .68.68z" fill="#81A1C1"/>
  <path fill="#ECEFF4" d="M408.756 84.991c3.77 15.977 18.118 27.865 35.244 27.865 17.127 0 31.475-11.889 35.244-27.865h-70.488zm59.974 13.505h-4.924a3.552 3.552 0 0 1-.137.428h.549a1.997 1.997 0 0 1 0 3.994H444.68a1.998 1.998 0 0 1-1.94-2.464 3.354 3.354 0 0 1-1.423-2.743 3.364 3.364 0 0 1 3.363-3.364h4.722a4.148 4.148 0 0 1 4.148-4.148h15.18a4.148 4.148 0 1 1 0 8.297z"/>
  <path fill="#D8DEE9" d="M441.317 89.889h-23.882l-4.896 4.7a36.408 36.408 0 0 0 8.345 9.931 39.887 39.887 0 0 0 4.725-3.546h1.073l.008-.008c.046.002.087.008.135.008 2.091 0 5.551-1.695 7.728-3.785l7.603-7.3h-.839z"/>
  <path fill="#ECEFF4" d="M427.32 69.865c-5.458 0-9.883 4.424-9.883 9.882v10.142h19.766V79.747c-.001-5.458-4.425-9.882-9.883-9.882z"/>
  <path fill="#D8DEE9" d="M428.34 69.917a10.11 10.11 0 0 0-1.02-.052c-5.458 0-9.883 4.424-9.883 9.882v10.142h2.041V79.747c0-5.113 3.884-9.319 8.862-9.83zm2.47 8.889c-.188 0-.373.026-.551.074-1.264.35-2.217 1.877-2.217 3.709v7.3h10.189V78.806h-7.421z"/>
  <path fill="#ECEFF4" d="M438.374 78.806a3.787 3.787 0 0 0-3.785 3.783v7.3h7.571v-7.3a3.785 3.785 0 0 0-3.786-3.783z"/>
  <path fill="#3B4252" d="M437.788 80.095a2.946 2.946 0 0 0-2.358 2.886v6.908h4.717V82.98a2.948 2.948 0 0 0-2.359-2.885z"/>
  <path fill="#D8DEE9" d="M441.317 82.98a2.944 2.944 0 0 0-3.53-2.885 2.946 2.946 0 0 1 2.358 2.886v6.908h1.171V82.98zm11.443-6.947h-2.833c-.111 0-.202-.092-.202-.203s.091-.203.202-.203h.205a.727.727 0 0 0 0-1.453h-5.165a.726.726 0 1 0 0 1.453h2.586c.112 0 .203.092.203.203s-.091.203-.203.203h-.236a.188.188 0 1 0 0 .376h5.443c.104 0 .189-.084.189-.188s-.086-.188-.189-.188zm-9.905-5.746h-3.447a.247.247 0 1 1 0-.493h.135v-.001h.113a.884.884 0 0 0 0-1.768h-6.284a.884.884 0 0 0 0 1.768h2.988v.001h.158a.246.246 0 1 1 0 .493h-.287c-.126 0-.23.104-.23.23s.104.23.23.23h6.624a.23.23 0 0 0 0-.46zm16.461-5.905h-3.307a2.107 2.107 0 0 0-2.021-2.71h-8.584a2.107 2.107 0 1 0 0 4.215h13.912a.753.753 0 1 0 0-1.505z"/>
  <path fill="#ECEFF4" d="M449.316 55.523h-9.41v-.033h-1.151a.59.59 0 0 1 0-1.182h1.733a2.409 2.409 0 1 0 0-4.816h-15.905a2.409 2.409 0 1 0 0 4.816h1.782a.591.591 0 0 1 0 1.182h-1.057v.033h-6.692a1.179 1.179 0 1 0 0 2.358h30.701a1.179 1.179 0 1 0-.001-2.358z"/>
</svg>
