<svg xmlns="http://www.w3.org/2000/svg" width="512" height="512" viewBox="0 0 512 512">
  <circle fill="#2E3440" cx="256" cy="256" r="256"/>
  <circle fill="#81A1C1" cx="256" cy="256" r="203.503"/>
  <circle fill="#D08770" cx="267.602" cy="297.295" r="36.376"/>
  <path fill="#ECEFF4" d="M449.042 250.215c-.013-.428-.033-.854-.048-1.281a213.37 213.37 0 0 0-.288-5.685 196.56 196.56 0 0 0-1.127-11.723h.019c-5.366-42.447-24.52-80.594-52.819-109.83-3 1.725-5.024 4.955-5.024 8.666v48.92h-21.869a8.206 8.206 0 0 0-8.207 8.207v59.006h-14.772a8.206 8.206 0 0 0-8.207 8.207v21.774h-11.49v-8.772a6.36 6.36 0 1 0-12.72 0v8.772h-1.643a8.166 8.166 0 0 0-5.376 2.017v-.002l-37.865 29.012s21.25 5.5 21.625 5.625c.274.092 8.83-2.224 13.41-3.476v81.728a8.206 8.206 0 0 0 8.206 8.207h74.315l.01-.01a194.04 194.04 0 0 0 20.438-21.437c.058-.072.113-.145.173-.215a206.97 206.97 0 0 0 2.837-3.564c.134-.172.265-.346.396-.518a189.675 189.675 0 0 0 2.521-3.342c.174-.236.346-.475.52-.711.779-1.066 1.55-2.141 2.308-3.225.195-.281.392-.564.587-.849a181.459 181.459 0 0 0 2.762-4.107 203.323 203.323 0 0 0 2.024-3.159c.207-.332.415-.662.621-.994.652-1.06 1.296-2.123 1.93-3.192.2-.339.401-.675.6-1.013.632-1.082 1.25-2.172 1.861-3.269.186-.332.373-.662.557-.994.619-1.125 1.226-2.26 1.822-3.397.16-.307.325-.61.484-.918a203.479 203.479 0 0 0 1.834-3.646c.119-.241.243-.483.36-.729a186.77 186.77 0 0 0 1.953-4.145c.043-.096.089-.188.132-.283a191.273 191.273 0 0 0 5.654-13.836c.097-.266.188-.535.282-.803.455-1.269.902-2.539 1.331-3.818.148-.447.29-.896.437-1.344a192.66 192.66 0 0 0 1.063-3.33c.167-.541.323-1.086.484-1.631.307-1.027.608-2.058.897-3.094.167-.601.327-1.205.489-1.808.265-.987.525-1.976.774-2.969.162-.642.316-1.283.472-1.929.231-.965.459-1.93.676-2.899a210.729 210.729 0 0 0 1.025-4.875c.138-.688.271-1.382.397-2.074a239.246 239.246 0 0 0 .858-4.969c.15-.951.291-1.906.429-2.863.103-.711.205-1.422.299-2.135.127-.963.241-1.933.354-2.897.083-.714.169-1.425.243-2.14.104-.983.193-1.976.281-2.965.063-.701.132-1.398.188-2.103.081-1.031.145-2.067.21-3.104.042-.664.091-1.328.126-1.994.061-1.149.101-2.304.141-3.457.021-.56.049-1.114.064-1.674a185.211 185.211 0 0 0-.024-10.944z"/>
  <path fill="#D8DEE9" d="M423.821 160.353v40.611h-23.735a9.187 9.187 0 0 0-9.188 9.188v54.112H379.41a9.187 9.187 0 0 0-9.189 9.188v18.254h-27.338a9.188 9.188 0 0 0-9.188 9.188v1.379a9.187 9.187 0 0 0 9.188 9.189h31.015a9.16 9.16 0 0 0 2.756-.422 9.206 9.206 0 0 0 2.758.422h18.739c1.099 3.844 4.63 6.662 8.828 6.662h31.945c6.619-19.496 10.212-40.393 10.212-62.127 0-34.796-9.208-67.444-25.315-95.644z"/>
  <path fill="#88C0D0" d="M387.891 328.293h-80.956c-12.219 0-22.124 9.906-22.124 22.125h-25.182c-9.906 0-17.938 8.031-17.938 17.938 0 6.049 3.003 11.388 7.59 14.638a10.615 10.615 0 0 0-.305 2.485c0 5.881 4.768 10.648 10.648 10.648h104.203c5.881 0 10.647-4.768 10.647-10.648 0-5.879-4.768-10.647-10.647-10.647h-2.926c.286-.742.541-1.502.729-2.287h26.259c12.22 0 22.124-9.905 22.124-22.125s-9.904-22.127-22.122-22.127z"/>
  <path fill="#D8DEE9" d="M387.891 328.293h-80.956c-12.219 0-22.124 9.906-22.124 22.125h-25.182c-9.906 0-17.938 8.031-17.938 17.938 0 1.72.25 3.377.702 4.949 2.144-7.506 9.041-13.008 17.235-13.008h25.183c0-12.219 9.904-22.125 22.123-22.125h80.956c10.521 0 19.318 7.346 21.563 17.186a22.2 22.2 0 0 0 .561-4.938c.001-12.221-9.905-22.127-22.123-22.127zm-11.664 48.959l-10.625-3-4.698.578v9.879h2.926c4.097 0 7.647 2.316 9.429 5.709a10.6 10.6 0 0 0 1.098-6.541h2.622l-.752-6.625z"/>
  <path d="M360.068 391.088a2.197 2.197 0 0 1-2.196 2.197h-55.694a2.196 2.196 0 0 1-2.195-2.197c0-1.213.982-2.195 2.195-2.195h55.694c1.213 0 2.196.982 2.196 2.195zm-23.846-9.49a3.373 3.373 0 0 1-3.373 3.373h-44.085a3.373 3.373 0 1 1 0-6.746h44.085a3.373 3.373 0 0 1 3.373 3.373zm-59.774 0a3.373 3.373 0 0 1-3.373 3.373h-6.746a3.373 3.373 0 0 1 0-6.746h6.746a3.372 3.372 0 0 1 3.373 3.373zm45.183-8.444c0 .926-.75 1.676-1.676 1.676h-57.832a1.677 1.677 0 0 1 0-3.352h57.832a1.677 1.677 0 0 1 1.676 1.676zm43.771-7.009a2.194 2.194 0 0 1-2.197 2.194h-3.607a2.193 2.193 0 0 1-2.195-2.194c0-1.215.982-2.197 2.195-2.197h3.607a2.195 2.195 0 0 1 2.197 2.197zm-17.925 0a2.193 2.193 0 0 1-2.196 2.194h-28.982a2.195 2.195 0 1 1 0-4.391h28.982a2.195 2.195 0 0 1 2.196 2.197zm15.415-7.139a2.433 2.433 0 0 1-2.432 2.432h-7.373a2.432 2.432 0 1 1 0-4.864h7.373a2.432 2.432 0 0 1 2.432 2.432zm-24.317 0a2.433 2.433 0 0 1-2.433 2.432h-42.517a2.432 2.432 0 0 1 0-4.864h42.517a2.432 2.432 0 0 1 2.433 2.432zm47.652-10.004a3.625 3.625 0 0 1-3.625 3.625h-70.25a3.625 3.625 0 0 1 0-7.25h70.25a3.625 3.625 0 0 1 3.625 3.625z" fill="#81A1C1"/>
  <path fill="#ECEFF4" d="M68.031 300.525c20.107 85.2 96.628 148.61 187.969 148.61s167.862-63.41 187.969-148.609H68.031v-.001zm319.86 72.018h-26.259a17.748 17.748 0 0 1-.729 2.287h2.926c5.881 0 10.647 4.768 10.647 10.648 0 5.879-4.768 10.647-10.647 10.647H259.625c-5.881 0-10.648-4.769-10.648-10.647 0-.857.112-1.688.305-2.486-4.587-3.25-7.59-8.588-7.59-14.637 0-9.906 8.031-17.938 17.938-17.938h25.183c0-12.219 9.904-22.125 22.123-22.125h80.956c12.22 0 22.124 9.906 22.124 22.125 0 12.22-9.907 22.126-22.125 22.126z"/>
  <path fill="#D8DEE9" d="M241.691 326.643H114.328l-26.11 25.066a194.02 194.02 0 0 0 44.507 52.959c8.957-5.77 17.524-12.154 25.201-18.91h5.727l.041-.039c.246.01.465.039.723.039 11.15 0 29.604-9.039 41.216-20.189l40.546-38.926h-4.488z"/>
  <path fill="#ECEFF4" d="M167.037 219.848c-29.11 0-52.708 23.598-52.708 52.707v54.088h105.416v-54.088c0-29.11-23.598-52.707-52.708-52.707z"/>
  <path fill="#D8DEE9" d="M172.48 220.127a53.205 53.205 0 0 0-5.443-.279c-29.11 0-52.708 23.598-52.708 52.707v54.088h10.886v-54.088c0-27.272 20.713-49.705 47.265-52.428zm13.172 47.4c-1.006 0-1.987.141-2.936.402-6.745 1.86-11.824 10.012-11.824 19.784v38.929h54.334v-59.115h-39.574z"/>
  <path fill="#ECEFF4" d="M225.99 267.527c-1.375 0-2.718.141-4.016.402-9.226 1.86-16.173 10.012-16.173 19.784v38.929h40.377v-38.929c.001-11.147-9.037-20.186-20.188-20.186z"/>
  <path fill="#3B4252" d="M222.867 274.41c-7.176 1.447-12.578 7.785-12.578 15.389v36.844h25.156v-36.844c0-7.604-5.403-13.942-12.578-15.389z"/>
  <path fill="#D8DEE9" d="M241.691 289.799c0-8.672-7.029-15.703-15.701-15.703-1.069 0-2.113.109-3.123.314 7.175 1.447 12.578 7.785 12.578 15.389v36.844h6.246v-36.844zm61.026-37.053h-15.106a1.084 1.084 0 0 1-1.084-1.082c0-.598.486-1.084 1.084-1.084h.59v-.004h.499a3.872 3.872 0 0 0 0-7.744h-27.544a3.872 3.872 0 1 0 0 7.744h13.098v.004h.691a1.084 1.084 0 1 1 0 2.166h-1.257a1.006 1.006 0 1 0 0 2.014h29.029a1.006 1.006 0 1 0 0-2.014zm-52.821-30.643h-18.382a1.318 1.318 0 0 1 0-2.634h.719v-.004h.606a4.713 4.713 0 0 0 0-9.424h-33.516a4.713 4.713 0 0 0 0 9.424h15.938v.004h.843a1.317 1.317 0 0 1 0 2.634h-1.534a1.224 1.224 0 1 0 0 2.45h35.325a1.225 1.225 0 1 0 .001-2.45zm87.794-31.496h-17.645c.303-1.018.471-2.096.471-3.213 0-6.209-5.032-11.244-11.242-11.244h-45.782c-6.209 0-11.243 5.035-11.243 11.244 0 6.211 5.034 11.244 11.243 11.244h74.198a4.015 4.015 0 1 0 0-8.031z"/>
  <path fill="#ECEFF4" d="M284.354 143.359h-50.185v-.178h-6.141a3.147 3.147 0 0 1 0-6.296h9.242c7.094 0 12.848-5.752 12.848-12.848 0-7.094-5.754-12.846-12.848-12.846h-84.83c-7.096 0-12.849 5.752-12.849 12.846 0 7.096 5.753 12.848 12.849 12.848h9.505a3.149 3.149 0 0 1 0 6.296h-5.635v.178h-35.695a6.286 6.286 0 0 0 0 12.572h163.739a6.283 6.283 0 0 0 6.283-6.285 6.286 6.286 0 0 0-6.283-6.287z"/>
</svg>
