<svg xmlns="http://www.w3.org/2000/svg" viewBox="0 -20 512 511">
  <path d="M7.574 368.367v49.918a20.2 20.2 0 004.04 12.117l11.284 15.043a20.186 20.186 0 0015.688 8.075l31.23.726a20.12 20.12 0 014.7.668l28.796 7.621a20.17 20.17 0 006.56.625l82.843-5.71a20.145 20.145 0 013.363.046l57.945 5.7c1.317.128 2.637.128 3.954 0l57.945-5.7a20.145 20.145 0 013.363-.047l82.844 5.711a20.17 20.17 0 006.558-.625l28.797-7.62a20.12 20.12 0 014.7-.669l31.23-.726a20.198 20.198 0 0015.688-8.075l11.285-15.043a20.206 20.206 0 004.039-12.117v-49.918zm0 0" fill="#4c566a"/>
  <path d="M481.2 368.367v52.945c0 4.372-1.419 8.625-4.04 12.122l-11.285 15.043a20.13 20.13 0 01-6.043 5.359l13.582-.316a20.194 20.194 0 0015.688-8.07l11.285-15.048a20.198 20.198 0 004.039-12.117v-49.918zm0 0" fill="#434c5e"/>
  <path d="M473.414 17.719l-31.23-.727a20.329 20.329 0 01-4.7-.668L408.688 8.7a20.387 20.387 0 00-6.56-.625l-82.843 5.715a19.736 19.736 0 01-3.363-.05l-57.945-5.7a20.253 20.253 0 00-3.954 0l-57.945 5.7a19.736 19.736 0 01-3.363.05L109.87 8.074a20.387 20.387 0 00-6.558.625l-28.797 7.625a20.329 20.329 0 01-4.7.668l-31.23.727a20.183 20.183 0 00-15.688 8.07L11.613 40.836a20.198 20.198 0 00-4.039 12.117v323.832a20.2 20.2 0 004.04 12.117l11.284 15.043a20.186 20.186 0 0015.688 8.075l31.23.726a20.12 20.12 0 014.7.668l28.796 7.621a20.17 20.17 0 006.56.625l82.843-5.71a20.145 20.145 0 013.363.046l57.945 5.7c1.317.128 2.637.128 3.954 0l57.945-5.7a20.145 20.145 0 013.363-.047l82.844 5.711a20.17 20.17 0 006.558-.625l28.797-7.62a20.12 20.12 0 014.7-.669l31.23-.726a20.198 20.198 0 0015.688-8.075l11.285-15.043a20.206 20.206 0 004.039-12.117V52.953c0-4.371-1.418-8.621-4.04-12.117l-11.284-15.047a20.183 20.183 0 00-15.688-8.07zm0 0" fill="#4c566a"/>
  <path d="M473.414 17.719l-13.945-.324 20.719 28.828v318.554c0 10.567-8.149 19.348-18.684 20.141l-21.711 1.625-34.332 9.09-87.86-6.059L256 395.633l-61.602-6.059-87.859 6.059-34.336-9.09-43.422-1.008-21.207-28.277v19.523c0 4.371 1.418 8.625 4.04 12.121l11.284 15.043a20.198 20.198 0 0015.688 8.075l31.23.726c1.586.035 3.164.262 4.7.664l28.797 7.625a20.17 20.17 0 006.558.625l82.844-5.715a20.572 20.572 0 013.363.051l57.945 5.7c1.317.128 2.637.128 3.954 0l57.945-5.7a20.572 20.572 0 013.363-.05l82.844 5.714a20.17 20.17 0 006.559-.625l28.796-7.625a20.324 20.324 0 014.7-.664l31.23-.726a20.198 20.198 0 0015.688-8.075l11.285-15.043a20.209 20.209 0 004.039-12.12V52.952c0-4.371-1.418-8.621-4.04-12.117l-11.284-15.047a20.183 20.183 0 00-15.688-8.07zm0 0" fill="#434c5e"/>
  <path d="M338.902 223.605l.008.008 75.64 66.594c-70.366 81.465-187.945 104.8-268.784 23.969-64.668-64.68-64.668-169.528 0-234.196 51.738-51.738 135.62-51.738 187.355 0 39.371 39.364 41.297 101.989 5.781 143.625zm0 0" fill="#88c0d0"/>
  <g fill="#81a1c1">
    <path d="M289.957 133.938s12.254 54.363-24.855 54.363h-.04c-1.324 0-2.039-1.563-1.183-2.574a16.363 16.363 0 003.8-11.844c-.605-7.973-7.062-14.453-15.03-15.086-8.07-.637-15.028 4.558-17.118 11.816a2.476 2.476 0 00-.027-.078c-2.246 9.02-1.746 17.715 5.336 24.793 13.562 13.567 35.55 13.567 49.113 0 16.957-16.953 16.957-44.437.004-61.39zm88.984 143.152c3.805 5.039 3.48 12.074-.761 16.758-41.196 45.472-86.149 49.46-86.149 49.46C169.598 363.57 116.477 265.087 98.88 220.173c4.816 34.387 20.441 67.555 46.887 94.004 80.84 80.832 198.418 57.496 268.78-23.969l-75.57-66.531zm0 0"/>
    <path d="M333.121 79.98c-10.965-10.968-23.82-19.992-37.89-26.523-18.22-8.445-37.965-12.531-57.66-12.258 47.074 1.016 118.831 45.297 109.632 127.399-8.223 73.425-77.176 72.578-91.953 68.964-71.684-17.523-45.977-99.18-45.977-99.18l-.136.013c-22.332 26.648-20.973 66.414 4.078 91.464 33.11 33.118 86.797 33.118 119.906 0a106.507 106.507 0 005.762-6.234c-.063.074-.063.074.02-.02 34.902-39.902 33.577-104.277-5.782-143.625zm0 0"/>
  </g>
  <path d="M417.188 110.02a18.147 18.147 0 0115.511.968l21.824 12.059a18.143 18.143 0 019.36 15.293l.14 4.383c.301 9.402-6.632 17.476-15.972 18.597l-4.004.48a18.2 18.2 0 01-9.14-1.265l-13.036-5.433a18.132 18.132 0 01-9.7-9.602l-4.921-11.488c-4.016-9.367.473-20.203 9.938-23.992zm0 0" fill="#4c566a"/>
  <path d="M463.883 138.34a18.143 18.143 0 00-9.36-15.293l-5.644-3.117a18.148 18.148 0 013.894 10.648l.141 4.383c.305 9.402-6.633 17.476-15.973 18.598l-4.003.48a18.148 18.148 0 01-9.137-1.266l-9.883-4.117a18.161 18.161 0 007.953 6.45l13.035 5.43a18.114 18.114 0 009.14 1.265l4.005-.48c9.34-1.122 16.273-9.196 15.972-18.598zm0 0" fill="#434c5e"/>
  <path d="M41.91 319.086c0-10.707 14.336-23.43 25.043-23.43s23.43 18.375 23.43 29.086c0 10.707-8.68 19.387-19.39 19.387-10.708 0-29.083-14.336-29.083-25.043zm0 0" fill="#4c566a"/>
  <path d="M81.094 315.45c0 10.706-8.684 19.39-19.39 19.39-4.724 0-10.938-2.793-16.411-6.828 5.809 8.36 17.824 16.117 25.7 16.117 10.71 0 19.39-8.68 19.39-19.387 0-8.3-7.64-21.199-16.063-26.586 4.02 5.676 6.774 12.317 6.774 17.293zm0 0" fill="#434c5e"/>
  <path d="M415.559 339.586c0-9.203 7.46-16.664 16.664-16.664s21.71 8.976 21.71 18.18c0 9.203-14.023 24.238-23.226 24.238s-15.148-16.55-15.148-25.754zm0 0" fill="#4c566a"/>
  <path d="M445.855 333.023c0 9.204-14.027 24.235-23.226 24.235a7.73 7.73 0 01-2.457-.403c2.605 4.829 6.21 8.48 10.535 8.48 9.203 0 23.227-15.03 23.227-24.233 0-5.454-4.395-10.829-9.887-14.301 1.137 1.992 1.808 4.101 1.808 6.222zm0 0" fill="#434c5e"/>
  <path d="M396.371 62.406c0-7.265 5.89-13.156 13.156-13.156 7.262 0 17.141 7.086 17.141 14.352 0 7.265-11.074 19.132-18.34 19.132-7.262 0-11.957-13.062-11.957-20.328zm0 0" fill="#4c566a"/>
  <path d="M420.29 57.223c0 7.265-11.071 19.132-18.337 19.132a6.239 6.239 0 01-1.941-.316c2.058 3.813 4.902 6.695 8.316 6.695 7.266 0 18.34-11.867 18.34-19.132 0-4.305-3.469-8.547-7.805-11.29.895 1.575 1.426 3.239 1.426 4.91zm0 0" fill="#434c5e"/>
  <path d="M39.414 96.246c0-7.644 26.063-26.797 33.711-26.797 7.645 0 6.488 24.957 6.488 32.606 0 7.648-6.199 13.847-13.843 13.847-7.649 0-26.356-12.007-26.356-19.656zm0 0" fill="#4c566a"/>
  <path d="M67.766 95.8c0 7.65-6.2 13.848-13.848 13.848-1.227 0-2.738-.312-4.41-.859 5.68 4.031 12.387 7.113 16.262 7.113 7.644 0 13.847-6.199 13.847-13.847 0-7.649 1.156-32.606-6.492-32.606-1.527 0-3.793.774-6.434 2.055 1.524 7.984 1.075 19.52 1.075 24.297zm0 0" fill="#434c5e"/>
  <path d="M506.445 36.29L495.16 21.245c-5.14-6.855-13.004-10.902-21.57-11.101l-31.23-.727c-.993-.023-37.712-9.105-40.75-8.898l-82.844 5.714c-.7.047-60.047-5.73-60.047-5.73-1.805-.176-63.38 5.7-63.38 5.7-.698.066-24.66-1.524-24.66-1.524-4.163-.285-7.788 2.86-8.077 7.035a7.576 7.576 0 007.035 8.074s25.652 1.64 27.183 1.488c0 0 59.594-5.78 60.414-5.699l57.946 5.7c1.535.152 87.468-5.645 87.468-5.645 1.387-.094 37.18 8.879 39.36 8.93l31.23.726c3.895.09 7.469 1.93 9.805 5.047l11.285 15.043a12.695 12.695 0 012.524 7.574V240.82l-27.137-7.488 5.797-30.64a7.575 7.575 0 10-14.883-2.817l-5.566 29.418-4.922-1.36-24.739-29.5c-2.687-3.203-7.464-3.62-10.672-.933s-3.625 7.465-.937 10.668l26.258 31.309a7.58 7.58 0 003.789 2.433l53.012 14.625v120.246a12.7 12.7 0 01-2.528 7.574l-11.281 15.047a12.556 12.556 0 01-9.805 5.043l-31.23.727c-2.18.05-35.262 8.543-35.262 8.543-1.336.351-86.937-5.324-86.937-5.324-1.543-.106-64.227 5.847-65.047 5.765l-57.938-5.699c-1.535-.148-75.781 4.84-75.781 4.84l15.828-42.758c1.45-3.922-.55-8.281-4.476-9.73a7.568 7.568 0 00-9.73 4.472l-4.294 11.598-11.148-12.91a7.576 7.576 0 00-10.684-.782 7.576 7.576 0 00-.781 10.684l16.605 19.23-7.582 20.489-28.328-7.5a27.816 27.816 0 00-6.46-.918l-31.231-.727a12.552 12.552 0 01-9.809-5.043l-11.281-15.047a12.69 12.69 0 01-2.527-7.574V52.953a12.7 12.7 0 012.527-7.574l11.281-15.043a12.556 12.556 0 019.809-5.047l31.23-.727c2.18-.05 37.977-9.027 39.356-8.93l24.851 1.716c4.164.277 7.79-2.864 8.078-7.036a7.576 7.576 0 00-7.035-8.078L110.391.52c-3.043-.208-39.762 8.878-40.754 8.898l-31.23.727c-8.567.199-16.43 4.246-21.571 11.101L5.555 36.29A27.953 27.953 0 000 52.953v365.332a27.932 27.932 0 005.555 16.66l11.285 15.047c5.14 6.856 13.004 10.903 21.57 11.102l31.23.726c.993.024 37.712 9.106 40.75 8.899 0 0 84.25-5.75 84.95-5.684 0 0 59.75 5.832 60.66 5.832.906 0 62.066-5.91 62.766-5.863l24.738 1.707c4.176.281 7.789-2.863 8.074-7.035a7.573 7.573 0 00-7.031-8.078l-24.738-1.703c-1.54-.106-62.575 5.765-62.575 5.765-.82.082-60.414-5.7-60.414-5.7-1.535-.151-90.23 5.61-91.57 5.255 0 0-33.078-8.488-35.262-8.54l-31.23-.726a12.543 12.543 0 01-9.805-5.047L17.672 425.86a12.7 12.7 0 01-2.527-7.574v-12.047l1.69 2.254c5.142 6.856 13.005 10.903 21.571 11.102l31.235.726c.988.024 31.73 8.04 31.73 8.04a27.858 27.858 0 009.02.859s84.25-5.754 84.945-5.684c0 0 59.754 5.832 60.66 5.832.91 0 62.07-5.914 62.77-5.863 0 0 88.91 5.633 91.855 4.855 0 0 30.746-8.015 31.738-8.039l31.23-.726c8.567-.2 16.43-4.246 21.571-11.102l1.692-2.254v12.047c0 2.711-.899 5.402-2.528 7.574l-11.281 15.043a12.549 12.549 0 01-9.805 5.047l-31.23.727c-2.18.05-35.262 8.539-35.262 8.539-1.34.355-26.61-1.164-26.61-1.164-4.167-.281-7.788 2.863-8.077 7.035a7.574 7.574 0 007.035 8.078s23.793 1.617 24.43 1.617c2.398 0 37.843-8.941 38.835-8.965l31.23-.722c8.567-.2 16.43-4.246 21.571-11.102l11.285-15.047a27.932 27.932 0 005.555-16.66V52.953a27.953 27.953 0 00-5.555-16.664zm0 0" fill="#2e3440"/>
  <path d="M371.664 150.656c-1.14-30.496-14.75-59.058-37.047-79.754-22.058-20.468-48.265-33.66-80.472-36.496-64.891-5.722-103.938 30.422-113.735 40.215-17.754 17.754-31.164 38.602-39.851 61.953a7.574 7.574 0 1014.195 5.285c6.637-17.832 16.3-34.058 28.777-48.379 3.992-.62 10.961-1.246 15.453.215 4.032 1.313 8.465-1.058 9.625-5.132 1.102-3.868-1.12-8.032-4.945-9.274-1.523-.496-3.117-.852-4.734-1.11 32.113-27.042 75.945-36.07 115.93-24.308 1.355.781 12.046 7.453 11.574 22.531a7.573 7.573 0 007.332 7.809c.078.004.16.004.242.004a7.572 7.572 0 007.562-7.336c.145-4.602-.39-8.711-1.363-12.371a124.521 124.521 0 0127.559 20.824c21.921 21.918 31.363 52.164 27.988 81.215-6.688-4.422-13.04-5.902-13.453-5.996a7.573 7.573 0 00-9.055 5.726 7.573 7.573 0 005.727 9.051c.09.02 8.207 2.004 13.308 8.121-6.933 23.196-22.804 44.711-44.726 55.633-22.184 11.059-49.203 10.617-71.016-1.168-1.242-2.687-3.336-8.984-.457-16.777a7.574 7.574 0 00-14.21-5.246 37.968 37.968 0 00-2.212 9.648c-22.457-21.613-24.851-58.258-4.715-82.281 9.157-10.946 22.262-17.645 36.64-17.645 12.474 0 24.196 4.86 33.017 13.68 13.968 13.973 13.968 36.707 0 50.68-10.59 10.59-27.82 10.59-38.407 0-3.328-3.328-5.96-11.032-3.457-17.121 1.313-3.196 3.332-6.157 8.242-6.54 3.665-.289 9.7 3.336 9.215 8.079a7.572 7.572 0 006.762 8.308c4.156.43 7.879-2.601 8.305-6.762.562-5.464-1.524-11.53-5.578-16.222-4.489-5.195-10.899-8.227-18.047-8.535-25.848-1.11-31.403 34.254-16.153 49.504 18.106 18.105 47.88 15.425 63.61-4.235 3.066 1.36 6.75 3.684 8.539 7.153 2.043 3.949 7.207 5.293 10.918 2.832 3.183-2.106 4.289-6.399 2.539-9.786-3.531-6.84-9.434-10.972-14.383-13.386a51.331 51.331 0 00.734-35.274c6.5-4.578 16.016-13.258 17.707-25.656a7.574 7.574 0 10-15.007-2.05c-.793 5.812-5.528 10.82-9.805 14.148-13.625-18.512-38.04-27.094-60.371-22.868-2.867-6.558-8.89-16.23-20.817-22.027a7.573 7.573 0 00-6.62 13.625c7.035 3.418 10.91 8.95 12.945 13.063-14.141 6.593-25.239 18.648-32.047 32.562-15.547-8.855-33.442-6.863-34.32-6.758-4.145.5-7.09 4.25-6.61 8.399.484 4.144 4.246 7.11 8.39 6.644.169-.02 15.821-1.668 27.212 6.243a75.54 75.54 0 00-2.262 21.726 75.094 75.094 0 0015.64 42.902c-6.027 4.551-13.421 12.559-17.226 25.942-1.098 3.867 1.121 8.035 4.941 9.273 4.036 1.309 8.47-1.054 9.63-5.133 3.054-10.742 9.136-16.347 13.113-18.992 26.039 23.133 63.976 29.598 96.238 16.39 3.098 7.138 8.734 18.395 17.562 30.063 2.688 3.555 8.02 3.989 11.254.926 2.766-2.62 3.121-7.031.825-10.066-8.297-10.969-13.485-21.656-16.114-27.84 6.492-4.027 12.426-8.848 17.758-14.313l64.36 56.664c-23.731 25.723-52.258 44.754-82.563 55.582-9.77-6.945-17.809-17.019-23.926-30a7.574 7.574 0 10-13.703 6.458c5.414 11.492 12.195 21.128 20.25 28.8-11.445 2.84-23.059 4.528-34.687 4.953-16.618.61-32.739-1.335-48.137-5.738-1.27-4.215-3.168-12.289-3.09-22.648a7.571 7.571 0 00-7.52-7.63h-.054a7.574 7.574 0 00-7.574 7.516 96.765 96.765 0 001.34 16.813c-18.473-7.746-35.688-19.254-51.192-34.34-.457-5.191-.785-18.574 5.89-31.48a7.574 7.574 0 00-3.246-10.207c-3.718-1.922-8.289-.47-10.207 3.246-4.003 7.738-6.039 15.504-7.011 22.285-11.434-14.543-20.09-30.77-25.75-48 1.449-5.961 8.148-27.375 32.218-41.817a7.574 7.574 0 00-7.793-12.988c-14.992 8.996-24.445 20.332-30.347 30.29-2.324-14.805-2.55-30.079-.55-45.434a7.57 7.57 0 00-6.528-8.489 7.573 7.573 0 00-8.492 6.532c-7.016 53.804 10.937 106.644 49.257 144.972 37.84 37.836 89.598 57.278 143.016 51.23 53.363-6.038 102.078-35.34 136.855-75.6a7.578 7.578 0 00-.726-10.638l-70.238-61.836c15.43-20.687 23.328-45.984 22.355-72.03-1.074-28.708.973 26.046 0 0-1.14-30.497.973 26.046 0 0zm42.711-47.668c-6.488 2.598-11.535 7.582-14.207 14.035-2.676 6.457-2.633 13.551.121 19.973l4.926 11.488a25.57 25.57 0 0013.746 13.61l13.035 5.43c5.598 2.331 11.125 2.015 16.957 1.316 13.34-1.602 23.07-12.934 22.64-26.363l-.144-4.38c-.289-9.015-5.37-17.32-13.261-21.679l-21.825-12.059c-6.699-3.703-14.883-4.214-21.988-1.37-6.488 2.597 3.05-1.22 0 0zm36.484 26.688a10.615 10.615 0 015.45 8.91l.144 4.379c.176 5.52-3.824 10.18-9.305 10.836-3.148.379-6.277 1.012-9.328-.258l-13.035-5.434a10.51 10.51 0 01-5.648-5.59l-4.922-11.492a10.467 10.467 0 01-.05-8.207c2.37-5.73 9.425-8.218 14.874-5.207zM70.992 351.703c14.867 0 26.965-12.094 26.965-26.96 0-13.79-15.016-36.661-31.004-36.661-15.242 0-32.617 16.516-32.617 31.004 0 15.121 22.184 32.617 36.656 32.617zm-4.039-48.473c5.484 0 15.856 14.075 15.856 21.512 0 6.516-5.301 11.813-11.817 11.813-7 0-21.508-9.692-21.508-17.47 0-6.222 10.614-15.855 17.47-15.855zm341.031 36.356c0 11.96 7.594 33.324 22.723 33.324 13.242 0 30.8-18.133 30.8-31.808 0-13.872-16.105-25.754-29.284-25.754-13.368 0-24.239 10.875-24.239 24.238zm24.239-9.09c5.68 0 14.136 6.344 14.136 10.606 0 5.136-10.824 16.664-15.652 16.664-2.14 0-7.574-9.903-7.574-18.18 0-5.012 4.078-9.09 9.09-9.09zm-22.696-288.82c-11.43 0-20.73 9.3-20.73 20.73 0 9.426 5.898 27.903 19.531 27.903 11.383 0 25.914-14.977 25.914-26.707 0-11.809-13.59-21.926-24.715-21.926zm-.91 33.437c-1.789-1.34-4.672-7.804-4.672-12.707 0-3.078 2.5-5.582 5.578-5.582 4.11 0 9.57 4.649 9.57 6.77-.105 3.187-7.1 10.777-10.476 11.52zM87.188 102.055c0-.739-.704-31.278-6.172-36.813-2.145-2.172-4.95-3.367-7.891-3.367-7.762 0-19.605 8.46-24.34 12.102C31.84 87.004 31.84 93.96 31.84 96.25c0 13.273 23.543 27.227 33.93 27.227 11.808 0 21.418-9.61 21.418-21.422zM47.25 96.434c1.156-1.832 4.7-5.883 11.488-10.996 5.313-4 9.563-6.38 12.149-7.543.734 3.03 1.152 23.37 1.152 24.16a6.277 6.277 0 01-6.27 6.273c-3.96-.043-16.082-7.566-18.519-11.894zm0 0" fill="#2e3440"/>
</svg>
